{"glyphs":{":":{"x_min":0,"x_max":406,"ha":406,"o":"m 44 490 q 44 551 88 586 q 131 621 203 621 q 275 621 318 586 q 362 551 362 490 q 362 429 318 394 q 275 359 203 359 q 131 359 88 394 q 44 429 44 490 z m 44 119 q 44 180 88 215 q 131 250 203 250 q 275 250 318 215 q 362 180 362 119 q 362 56 317 22 q 272 -12 203 -12 q 131 -12 88 23 q 44 58 44 119 z"},"$":{"x_min":0,"x_max":760,"ha":760,"o":"m 492 429 q 601 395 655 342 q 709 289 709 210 q 709 109 632 48 q 554 -12 423 -12 q 290 -12 169 42 l 123 -12 l -6 -12 l 269 318 q 154 358 102 406 q 50 454 50 535 q 50 637 132 697 q 213 757 331 757 q 398 757 469 741 q 540 725 585 698 l 634 757 l 765 757 z m 399 473 l 484 577 q 454 603 417 603 q 388 603 369 584 q 349 565 349 538 q 349 501 399 473 z m 367 279 l 276 171 q 312 142 346 142 q 374 142 394 163 q 415 184 415 211 q 415 249 367 279 z"},"?":{"x_min":0,"x_max":573,"ha":573,"o":"m 6 453 q 37 584 119 671 q 202 757 307 757 q 396 757 457 696 q 518 634 518 544 q 518 459 469 383 q 419 307 317 223 q 400 192 400 109 q 400 58 365 23 q 330 -12 279 -12 q 228 -12 192 22 q 156 57 156 107 q 156 131 166 157 q 176 183 216 231 q 258 281 269 311 q 280 340 280 367 q 280 426 245 463 q 209 499 151 499 q 95 499 6 453 z"},"<":{"x_min":0,"x_max":667,"ha":667,"o":"m 53 410 l 614 642 l 614 471 l 271 338 l 614 205 l 614 34 l 53 266 z"},"'":{"x_min":0,"x_max":281,"ha":281,"o":"m 41 745 l 239 745 l 239 627 l 208 482 l 72 482 l 41 627 z"},"=":{"x_min":0,"x_max":667,"ha":667,"o":"m 53 538 l 614 538 l 614 380 l 53 380 z m 53 298 l 614 298 l 614 140 l 53 140 z"},"a":{"x_min":0,"x_max":708,"ha":708,"o":"m 62 346 l 62 523 q 190 593 352 593 q 506 593 580 527 q 653 461 653 325 l 653 0 l 351 0 l 351 44 q 284 -5 204 -5 q 137 -5 92 39 q 47 83 47 149 q 47 225 103 272 q 158 320 248 320 q 301 320 351 306 q 351 347 320 370 q 288 393 232 393 q 149 393 62 346 z m 351 130 l 351 212 q 324 221 302 221 q 274 221 258 207 q 241 193 241 170 q 241 146 259 130 q 277 114 304 114 q 332 114 351 130 z"},"L":{"x_min":0,"x_max":698,"ha":698,"o":"m 72 0 l 72 745 l 402 745 l 402 187 l 691 187 l 691 0 z"},"3":{"x_min":0,"x_max":854,"ha":854,"o":"m 167 745 l 455 745 q 590 745 660 695 q 730 646 730 550 q 730 490 699 451 q 669 412 604 383 q 737 334 737 203 q 737 106 668 53 q 600 0 458 0 l 167 0 l 167 259 q 229 182 319 182 q 359 182 383 201 q 407 220 407 252 q 407 292 376 317 q 345 341 293 341 q 240 341 167 314 l 167 446 q 218 432 278 432 q 334 432 367 455 q 400 477 400 515 q 400 548 375 568 q 351 588 310 588 q 267 588 229 567 q 191 546 167 508 z"},";":{"x_min":0,"x_max":406,"ha":406,"o":"m 44 506 q 44 569 89 603 q 133 637 203 637 q 275 637 318 602 q 362 567 362 506 q 362 445 318 410 q 275 375 203 375 q 131 375 88 410 q 44 445 44 506 z m 105 -141 l 96 -135 q 165 -93 173 -10 q 43 30 43 134 q 43 201 90 241 q 138 281 208 281 q 280 281 324 240 q 368 200 368 130 q 368 38 292 -42 q 217 -122 105 -141 z"},"J":{"x_min":0,"x_max":563,"ha":563,"o":"m 176 745 l 506 745 l 506 303 q 506 160 491 106 q 476 53 421 20 q 367 -12 290 -12 q 188 -12 110 38 q 32 87 5 173 q 32 167 76 167 q 140 167 158 186 q 176 206 176 264 z"},"V":{"x_min":0,"x_max":844,"ha":844,"o":"m 835 745 l 582 0 l 262 0 l 9 745 l 338 745 l 422 494 l 506 745 z"},"\"":{"x_min":0,"x_max":500,"ha":500,"o":"m 278 745 l 476 745 l 476 627 l 445 482 l 309 482 l 278 627 z m 24 745 l 222 745 l 222 627 l 191 482 l 55 482 l 24 627 z"},"7":{"x_min":0,"x_max":854,"ha":854,"o":"m 469 0 l 108 0 l 371 612 l 151 612 l 151 745 l 789 745 z"},"S":{"x_min":0,"x_max":729,"ha":729,"o":"m 698 707 l 616 472 q 536 581 431 581 q 373 581 373 537 q 373 523 391 509 q 410 495 487 465 q 573 431 619 404 q 665 376 688 333 q 711 290 711 233 q 711 113 620 51 q 529 -12 353 -12 q 155 -12 12 44 l 93 293 q 128 238 180 206 q 232 174 280 174 q 303 174 319 186 q 335 198 335 216 q 335 232 320 248 q 304 263 238 290 q 179 313 140 336 q 101 359 72 401 q 43 443 43 507 q 43 631 133 694 q 224 757 400 757 q 561 757 698 707 z"},"}":{"x_min":0,"x_max":385,"ha":385,"o":"m 373 364 l 373 198 q 323 198 301 173 q 278 148 278 93 l 278 9 q 278 -100 234 -144 q 190 -188 87 -188 l 8 -188 l 8 -28 l 26 -28 q 70 -28 85 -6 q 101 16 101 80 l 101 107 q 101 258 189 280 l 189 282 q 101 304 101 455 l 101 482 q 101 544 86 567 q 70 590 26 590 l 8 590 l 8 750 l 87 750 q 193 750 235 705 q 278 660 278 553 l 278 469 q 278 415 301 389 q 323 364 373 364 z"},"Z":{"x_min":0,"x_max":823,"ha":823,"o":"m 799 187 l 799 0 l 14 0 l 357 558 l 42 558 l 42 745 l 816 745 l 473 187 z"},"x":{"x_min":0,"x_max":854,"ha":854,"o":"m 844 0 l 496 0 l 414 116 l 332 0 l 9 0 l 240 299 l 9 588 l 356 588 l 438 474 l 517 588 l 844 588 l 613 290 z"},")":{"x_min":0,"x_max":563,"ha":563,"o":"m 9 757 l 211 757 q 355 650 425 538 q 495 426 495 296 q 495 167 426 55 q 356 -56 209 -165 l 9 -165 q 128 -52 184 56 q 240 165 240 296 q 240 421 185 532 q 129 643 9 757 z"},"&":{"x_min":0,"x_max":938,"ha":938,"o":"m 664 427 l 853 427 q 783 317 701 236 l 932 0 l 595 0 l 520 76 q 464 34 396 11 q 327 -12 261 -12 q 162 -12 104 37 q 46 87 46 164 q 46 303 229 381 q 154 459 154 540 q 154 633 227 695 q 300 757 411 757 q 510 757 573 707 q 636 657 636 579 q 636 481 533 407 l 604 335 q 637 370 664 427 z m 461 472 q 526 491 526 541 q 526 563 510 578 q 495 592 471 592 q 448 592 431 577 q 415 562 415 540 q 415 507 461 472 z m 426 173 l 344 255 q 319 240 307 227 q 296 213 296 193 q 296 170 312 156 q 328 141 353 141 q 385 141 426 173 z"},"_":{"x_min":0,"x_max":500,"ha":500,"o":"m -6 -75 l 506 -75 l 506 -125 l -6 -125 z"},"v":{"x_min":0,"x_max":729,"ha":729,"o":"m -2 588 l 300 588 l 365 438 l 429 588 l 731 588 l 476 0 l 253 0 z"},"O":{"x_min":0,"x_max":854,"ha":854,"o":"m 427 -12 q 267 -12 156 100 q 45 212 45 373 q 45 534 156 645 q 267 757 427 757 q 587 757 698 645 q 809 534 809 373 q 809 212 698 100 q 587 -12 427 -12 z m 427 471 q 395 471 374 449 q 353 427 353 393 q 353 359 374 337 q 395 315 427 315 q 459 315 480 337 q 501 359 501 393 q 501 427 480 449 q 459 471 427 471 z"},"(":{"x_min":0,"x_max":563,"ha":563,"o":"m 354 757 l 552 757 q 425 629 374 525 q 323 421 323 296 q 323 169 378 58 q 434 -52 554 -165 l 354 -165 q 206 -57 137 53 q 68 163 68 296 q 68 429 138 540 q 208 651 354 757 z"},"C":{"x_min":0,"x_max":781,"ha":781,"o":"m 767 678 l 629 415 q 568 436 495 436 q 390 436 390 379 q 390 352 419 336 q 449 321 503 321 q 576 321 629 347 l 767 65 q 708 30 625 9 q 542 -12 467 -12 q 277 -12 164 97 q 52 207 52 367 q 52 537 169 647 q 286 757 467 757 q 545 757 628 736 q 711 714 767 678 z"},"W":{"x_min":0,"x_max":1229,"ha":1229,"o":"m 506 0 l 263 0 l 0 745 l 322 745 l 408 502 l 499 745 l 728 745 l 823 502 l 905 745 l 1227 745 l 976 0 l 733 0 l 615 295 z"},"A":{"x_min":0,"x_max":990,"ha":990,"o":"m 331 0 l 1 0 l 260 745 l 730 745 l 989 0 l 659 0 l 616 126 l 374 126 z m 434 302 l 556 302 l 495 487 z"},"f":{"x_min":0,"x_max":563,"ha":563,"o":"m 559 410 l 559 286 l 388 286 l 388 0 l 86 0 l 86 286 l 21 286 l 21 410 l 86 410 q 86 574 172 665 q 258 757 409 757 q 472 757 559 735 l 559 439 q 515 492 464 492 q 428 492 408 470 q 388 447 388 410 z"},"Q":{"x_min":0,"x_max":854,"ha":854,"o":"m 747 161 l 872 0 l 623 0 l 601 29 q 518 -12 427 -12 q 267 -12 156 100 q 45 212 45 373 q 45 534 156 645 q 267 757 427 757 q 587 757 698 645 q 809 534 809 373 q 809 256 747 161 z m 427 471 q 395 471 374 449 q 353 427 353 393 q 353 359 374 337 q 395 315 427 315 q 459 315 480 337 q 501 359 501 393 q 501 427 480 449 q 459 471 427 471 z"},"w":{"x_min":0,"x_max":990,"ha":990,"o":"m 1 588 l 310 588 l 368 462 l 421 588 l 561 588 l 616 462 l 676 588 l 989 588 l 728 0 l 560 0 l 490 161 l 420 0 l 252 0 z"},"-":{"x_min":0,"x_max":417,"ha":417,"o":"m 36 200 l 36 388 l 380 388 l 380 200 z"},"E":{"x_min":0,"x_max":719,"ha":719,"o":"m 692 187 l 692 0 l 73 0 l 73 745 l 692 745 l 692 558 l 403 558 l 403 466 l 604 466 l 604 279 l 403 279 l 403 187 z"},"s":{"x_min":0,"x_max":615,"ha":615,"o":"m 6 57 l 73 222 q 104 180 148 156 q 192 133 235 133 q 261 133 277 145 q 293 156 293 175 q 293 193 280 206 q 266 220 208 236 q 150 253 113 273 q 76 292 52 331 q 27 370 27 415 q 27 503 102 552 q 178 600 314 600 q 467 600 576 550 l 504 400 q 433 464 366 464 q 344 464 331 454 q 317 444 317 429 q 317 411 331 398 q 345 385 405 370 q 466 354 506 335 q 545 315 569 276 q 593 237 593 187 q 593 96 519 44 q 446 -9 329 -9 q 171 -9 6 57 z"},">":{"x_min":0,"x_max":667,"ha":667,"o":"m 614 410 l 614 266 l 53 34 l 53 205 l 396 338 l 53 471 l 53 642 z"},"l":{"x_min":0,"x_max":417,"ha":417,"o":"m 359 0 l 57 0 l 57 745 l 359 745 z"},"8":{"x_min":0,"x_max":854,"ha":854,"o":"m 625 376 l 625 374 q 799 336 799 190 q 799 85 710 37 q 621 -12 426 -12 q 239 -12 147 39 q 56 89 56 194 q 56 336 226 374 l 226 376 q 62 414 62 547 q 62 650 149 703 q 236 757 407 757 q 608 757 700 708 q 792 658 792 549 q 792 413 625 376 z m 489 542 q 489 567 471 585 q 453 603 427 603 q 401 603 383 585 q 365 567 365 542 q 365 517 383 498 q 401 480 427 480 q 452 480 470 498 q 489 517 489 542 z m 429 145 q 455 145 472 163 q 490 181 490 206 q 490 234 472 252 q 454 271 427 271 q 400 271 382 253 q 364 235 364 208 q 364 181 383 163 q 401 145 429 145 z"},"\\":{"x_min":0,"x_max":281,"ha":281,"o":"m 128 745 l 313 -87 l 153 -87 l -32 745 z"},"e":{"x_min":0,"x_max":698,"ha":698,"o":"m 661 224 l 661 121 q 562 -9 376 -9 q 223 -9 129 76 q 36 162 36 301 q 36 433 122 517 q 208 600 344 600 q 414 600 474 577 q 533 553 577 508 q 620 462 641 402 q 661 342 661 256 l 353 256 q 370 211 409 186 q 448 160 498 160 q 600 160 661 224 z m 335 359 l 477 359 q 475 403 455 427 q 436 452 404 452 q 376 452 355 428 q 335 405 335 359 z"},"b":{"x_min":0,"x_max":792,"ha":792,"o":"m 356 745 l 356 570 q 413 593 470 593 q 595 593 677 510 q 760 427 760 301 q 760 174 673 87 q 587 0 430 0 l 54 0 l 54 745 z m 356 214 l 363 214 q 401 214 422 218 q 443 222 457 239 q 470 255 470 290 q 470 323 453 342 q 435 361 405 361 q 381 361 356 347 z"},"%":{"x_min":0,"x_max":1073,"ha":1073,"o":"m 254 757 q 352 757 418 699 q 484 641 484 556 q 484 471 418 414 q 352 356 254 356 q 157 356 91 414 q 25 472 25 556 q 25 642 91 699 q 157 757 254 757 z m 254 607 q 234 607 222 595 q 209 584 209 567 q 209 549 222 537 q 234 526 254 526 q 274 526 287 538 q 300 549 300 567 q 300 584 287 596 q 274 607 254 607 z m 287 -12 l 673 757 l 783 757 l 398 -12 z m 818 394 q 916 394 982 336 q 1048 278 1048 193 q 1048 109 982 51 q 916 -7 818 -7 q 721 -7 655 51 q 589 109 589 193 q 589 278 655 336 q 721 394 818 394 z m 818 244 q 798 244 786 233 q 773 221 773 204 q 773 186 786 175 q 798 163 818 163 q 838 163 851 175 q 864 186 864 204 q 864 221 851 233 q 838 244 818 244 z"},"m":{"x_min":0,"x_max":1198,"ha":1198,"o":"m 356 588 l 356 514 q 429 593 537 593 q 666 593 727 491 q 777 544 828 568 q 878 593 942 593 q 1038 593 1093 534 q 1148 476 1148 369 l 1148 0 l 863 0 l 863 351 q 863 382 847 400 q 832 417 807 417 q 779 417 752 398 l 752 0 l 467 0 l 467 351 q 467 382 452 399 q 437 417 411 417 q 384 417 356 397 l 356 0 l 54 0 l 54 588 z"},"#":{"x_min":0,"x_max":667,"ha":667,"o":"m 230 151 l 194 -20 l 59 -20 l 95 151 l 32 151 l 32 286 l 123 286 l 145 392 l 32 392 l 32 527 l 173 527 l 209 698 l 344 698 l 308 527 l 438 527 l 474 698 l 609 698 l 573 527 l 636 527 l 636 392 l 545 392 l 523 286 l 636 286 l 636 151 l 495 151 l 459 -20 l 324 -20 l 360 151 z m 258 286 l 388 286 l 410 392 l 280 392 z"},",":{"x_min":0,"x_max":406,"ha":406,"o":"m 105 -141 l 96 -135 q 165 -93 173 -10 q 43 29 43 146 q 43 218 91 267 q 139 317 208 317 q 278 317 324 267 q 369 218 369 140 q 369 42 294 -40 q 218 -122 105 -141 z"},"n":{"x_min":0,"x_max":802,"ha":802,"o":"m 357 588 l 357 514 q 433 593 539 593 q 642 593 697 535 q 752 478 752 365 l 752 0 l 467 0 l 467 343 q 467 416 411 416 q 384 416 357 397 l 357 0 l 55 0 l 55 588 z"},"h":{"x_min":0,"x_max":802,"ha":802,"o":"m 354 745 l 354 511 q 424 593 532 593 q 632 593 690 534 q 748 476 748 371 l 748 0 l 463 0 l 463 340 q 463 414 406 414 q 380 414 354 391 l 354 0 l 52 0 l 52 745 z"},"z":{"x_min":0,"x_max":656,"ha":656,"o":"m 638 197 l 638 0 l 9 0 l 221 400 l 36 400 l 36 588 l 641 588 l 433 197 z"},"B":{"x_min":0,"x_max":875,"ha":875,"o":"m 72 745 l 538 745 q 681 745 754 689 q 827 633 827 537 q 827 432 730 377 q 788 347 817 306 q 847 266 847 206 q 847 112 780 56 q 713 0 592 0 l 72 0 z m 402 595 l 402 450 l 410 450 q 464 450 486 467 q 509 483 509 523 q 509 595 422 595 z m 402 325 l 402 164 l 412 164 q 469 164 493 181 q 517 199 517 241 q 517 325 425 325 z"},"K":{"x_min":0,"x_max":948,"ha":948,"o":"m 405 745 l 405 496 q 489 502 533 568 q 577 633 577 745 l 913 745 q 913 609 877 521 q 842 432 766 374 q 918 258 934 0 l 578 0 q 565 267 405 272 l 405 0 l 75 0 l 75 745 z"},"R":{"x_min":0,"x_max":896,"ha":896,"o":"m 73 745 l 560 745 q 687 745 759 681 q 831 618 831 522 q 831 417 746 357 q 867 219 890 0 l 548 0 q 539 141 506 208 q 473 276 403 276 l 403 0 l 73 0 z m 403 592 l 403 448 l 412 448 q 501 448 501 518 q 501 547 483 570 q 465 592 423 592 z"},"T":{"x_min":0,"x_max":698,"ha":698,"o":"m 18 415 l 18 745 l 680 745 l 680 415 l 514 415 l 514 0 l 184 0 l 184 415 z"},"P":{"x_min":0,"x_max":833,"ha":833,"o":"m 75 745 l 527 745 q 670 745 747 673 q 823 600 823 493 q 823 389 750 315 q 678 242 575 242 q 490 242 405 307 l 405 0 l 75 0 z m 405 584 l 405 422 q 419 418 432 418 q 469 418 492 441 q 515 465 515 503 q 515 541 496 562 q 476 584 440 584 z"},"|":{"x_min":0,"x_max":667,"ha":667,"o":"m 253 745 l 413 745 l 413 -87 l 253 -87 z"},"t":{"x_min":0,"x_max":563,"ha":563,"o":"m 529 588 l 529 423 l 403 423 l 403 297 q 403 233 460 233 q 502 233 532 275 l 532 42 q 461 -5 359 -5 q 250 -5 176 60 q 101 125 101 239 l 101 423 l -22 423 l 403 756 l 403 588 z"},"M":{"x_min":0,"x_max":1052,"ha":1052,"o":"m 71 0 l 71 745 l 391 745 l 526 590 l 661 745 l 981 745 l 981 0 l 651 0 l 651 373 l 526 229 l 401 373 l 401 0 z"},"g":{"x_min":0,"x_max":760,"ha":760,"o":"m 707 587 l 707 126 q 707 -25 630 -95 q 553 -165 392 -165 q 182 -165 44 -80 l 44 187 q 152 82 284 82 q 406 82 406 157 q 406 165 405 173 q 354 141 281 141 q 171 141 107 202 q 42 262 42 364 q 42 431 70 479 q 97 527 134 549 q 171 571 216 579 q 261 587 368 587 z m 405 422 l 398 422 q 297 422 297 348 q 297 318 315 300 q 333 282 363 282 q 389 282 405 295 z"},"j":{"x_min":0,"x_max":500,"ha":500,"o":"m 340 586 q 305 586 279 611 q 254 637 254 672 q 254 707 279 732 q 305 757 340 757 q 375 757 400 732 q 425 707 425 672 q 425 637 400 611 q 375 586 340 586 z m 427 588 l 427 167 q 427 3 346 -81 q 266 -165 132 -165 q 62 -165 9 -139 l 9 85 q 37 76 58 76 q 94 76 109 98 q 125 120 125 177 l 125 588 q 211 554 281 554 q 358 554 427 588 z"},"i":{"x_min":0,"x_max":417,"ha":417,"o":"m 273 586 q 238 586 212 611 q 187 637 187 672 q 187 707 212 732 q 238 757 273 757 q 308 757 333 732 q 358 707 358 672 q 358 637 333 611 q 308 586 273 586 z m 360 588 l 360 0 l 58 0 l 58 588 q 118 554 213 554 q 301 554 360 588 z"},"y":{"x_min":0,"x_max":740,"ha":740,"o":"m 418 -165 l 90 -165 l 211 121 l 4 588 l 304 588 l 375 431 l 443 588 l 736 588 z"},"@":{"x_min":0,"x_max":740,"ha":740,"o":"m 565 579 l 504 193 q 502 182 502 175 q 502 155 521 155 q 563 155 616 219 q 668 284 668 396 q 668 523 594 599 q 521 674 396 674 q 253 674 162 575 q 72 476 72 318 q 72 165 159 71 q 247 -23 389 -23 q 528 -23 642 68 l 752 68 q 690 -11 591 -58 q 492 -105 391 -105 q 220 -105 104 16 q -12 138 -12 318 q -12 497 96 627 q 204 757 396 757 q 561 757 656 654 q 752 551 752 396 q 752 302 712 229 q 672 155 607 114 q 542 73 489 73 q 430 73 413 131 q 382 101 355 87 q 329 73 296 73 q 226 73 182 131 q 137 189 137 283 q 137 404 198 500 q 259 596 346 596 q 383 596 409 579 q 435 562 461 524 l 470 579 z m 363 512 q 312 512 278 438 q 245 363 245 256 q 245 206 262 178 q 280 150 312 150 q 338 150 365 175 q 392 200 409 274 q 427 349 427 421 q 427 512 363 512 z"},".":{"x_min":0,"x_max":406,"ha":406,"o":"m 44 147 q 44 213 91 260 q 137 306 203 306 q 269 306 315 260 q 362 213 362 147 q 362 82 315 35 q 269 -12 203 -12 q 137 -12 91 35 q 44 82 44 147 z"},"p":{"x_min":0,"x_max":802,"ha":802,"o":"m 361 588 l 361 543 q 429 593 506 593 q 616 593 690 510 q 764 428 764 303 q 764 169 685 82 q 605 -5 483 -5 q 421 -5 361 21 l 361 -165 l 59 -165 l 59 588 z m 361 329 l 361 223 q 387 209 413 209 q 440 209 457 229 q 474 249 474 282 q 474 315 457 336 q 440 357 413 357 q 383 357 361 329 z"},"X":{"x_min":0,"x_max":969,"ha":969,"o":"m 300 377 l 9 745 l 369 745 l 479 608 l 584 745 l 942 745 l 660 379 l 960 0 l 599 0 l 481 148 l 367 0 l 9 0 z"},"*":{"x_min":0,"x_max":719,"ha":719,"o":"m 683 378 q 663 247 567 174 l 432 306 l 477 123 q 418 101 359 101 q 301 101 242 123 l 288 307 l 151 174 q 56 248 36 378 l 217 429 l 36 480 q 55 603 151 684 l 287 550 l 242 735 q 293 757 359 757 q 426 757 477 735 l 432 550 l 567 684 q 665 604 683 480 l 501 429 z"},"Y":{"x_min":0,"x_max":906,"ha":906,"o":"m 618 0 l 288 0 l 288 325 l 4 745 l 338 745 l 453 576 l 568 745 l 902 745 l 618 325 z"},"c":{"x_min":0,"x_max":656,"ha":656,"o":"m 602 565 l 602 307 q 512 350 437 350 q 394 350 369 336 q 345 322 345 298 q 345 241 450 241 q 540 241 602 272 l 602 17 q 514 -9 413 -9 q 236 -9 140 76 q 43 161 43 292 q 43 423 135 511 q 228 600 383 600 q 491 600 602 565 z"},"!":{"x_min":0,"x_max":406,"ha":406,"o":"m 164 214 q 38 424 38 554 q 38 643 85 700 q 132 757 204 757 q 274 757 321 701 q 367 646 367 560 q 367 414 240 214 q 277 200 298 170 q 319 141 319 104 q 319 56 285 22 q 251 -12 203 -12 q 155 -12 121 22 q 86 56 86 104 q 86 141 106 170 q 127 200 164 214 z"},"/":{"x_min":0,"x_max":281,"ha":281,"o":"m 153 745 l 313 745 l 128 -87 l -32 -87 z"},"[":{"x_min":0,"x_max":531,"ha":531,"o":"m 516 15 l 516 -150 l 72 -150 l 72 745 l 516 745 l 516 580 l 374 580 l 374 15 z"},"6":{"x_min":0,"x_max":854,"ha":854,"o":"m 796 745 l 796 732 q 653 688 548 577 q 675 558 744 485 q 813 411 813 302 q 813 164 705 76 q 598 -12 426 -12 q 255 -12 149 78 q 44 168 44 313 q 44 434 119 546 q 195 658 339 745 z m 423 264 q 452 264 471 283 q 490 301 490 330 q 490 360 471 379 q 453 399 424 399 q 396 399 376 379 q 356 358 356 330 q 356 302 375 283 q 395 264 423 264 z"},"r":{"x_min":0,"x_max":667,"ha":667,"o":"m 358 459 q 416 593 525 593 q 586 593 625 553 q 665 513 665 451 q 665 387 626 347 q 587 307 525 307 q 454 307 403 361 q 358 323 358 219 l 358 0 l 56 0 l 56 588 l 358 588 z"},"2":{"x_min":0,"x_max":854,"ha":854,"o":"m 718 133 l 718 0 l 119 0 q 241 151 301 239 q 361 327 361 384 q 361 416 340 438 q 319 460 288 460 q 248 460 210 428 q 173 396 123 326 l 129 664 q 197 712 256 735 q 315 757 387 757 q 522 757 610 676 q 698 595 698 452 q 698 294 576 133 z"},"{":{"x_min":0,"x_max":385,"ha":385,"o":"m 12 198 l 12 364 q 62 364 84 389 q 107 414 107 469 l 107 553 q 107 662 151 706 q 195 750 298 750 l 377 750 l 377 590 l 359 590 q 315 590 300 568 q 284 546 284 482 l 284 455 q 284 304 196 282 l 196 280 q 284 258 284 107 l 284 80 q 284 16 300 -6 q 315 -28 359 -28 l 377 -28 l 377 -188 l 298 -188 q 192 -188 150 -143 q 107 -98 107 9 l 107 93 q 107 147 84 173 q 62 198 12 198 z"},"9":{"x_min":0,"x_max":854,"ha":854,"o":"m 59 0 l 59 13 q 204 58 307 168 q 180 187 111 260 q 42 334 42 443 q 42 581 150 669 q 258 757 429 757 q 600 757 706 667 q 811 577 811 432 q 811 312 736 199 q 661 87 516 0 z m 432 481 q 403 481 384 462 q 365 443 365 415 q 365 385 384 366 q 402 346 431 346 q 459 346 479 366 q 499 387 499 415 q 499 443 480 462 q 460 481 432 481 z"}," ":{"x_min":0,"x_max":333,"ha":333,"o":""},"I":{"x_min":0,"x_max":479,"ha":479,"o":"m 75 0 l 75 745 l 405 745 l 405 0 z"},"H":{"x_min":0,"x_max":969,"ha":969,"o":"m 400 0 l 70 0 l 70 745 l 400 745 l 400 472 l 568 472 l 568 745 l 898 745 l 898 0 l 568 0 l 568 277 l 400 277 z"},"4":{"x_min":0,"x_max":854,"ha":854,"o":"m 677 0 l 345 0 l 345 250 l 48 250 l 48 409 l 345 745 l 677 745 l 677 420 l 798 420 l 798 250 l 677 250 z m 345 420 l 345 601 l 188 420 z"},"~":{"x_min":0,"x_max":656,"ha":656,"o":"m 608 310 q 561 271 525 253 q 490 235 447 235 q 423 235 394 242 q 365 250 309 278 q 238 313 204 313 q 128 313 48 235 l 48 397 q 130 470 213 470 q 237 470 267 462 q 296 455 355 426 q 425 392 457 392 q 526 392 608 469 z"},"D":{"x_min":0,"x_max":885,"ha":885,"o":"m 74 745 l 441 745 q 639 745 747 635 q 855 526 855 371 q 855 272 806 185 q 757 97 662 49 q 567 0 433 0 l 74 0 z m 404 460 l 404 285 l 412 285 q 472 285 498 306 q 525 327 525 374 q 525 460 425 460 z"},"^":{"x_min":0,"x_max":656,"ha":656,"o":"m 259 745 l 395 745 l 595 348 l 422 348 l 327 588 l 233 348 l 60 348 z"},"0":{"x_min":0,"x_max":854,"ha":854,"o":"m 427 757 q 588 757 699 646 q 809 535 809 373 q 809 210 699 99 q 588 -12 427 -12 q 266 -12 155 99 q 45 210 45 373 q 45 535 155 646 q 266 757 427 757 z m 427 315 q 460 315 481 337 q 503 359 503 393 q 503 427 481 449 q 460 471 427 471 q 395 471 373 449 q 351 426 351 393 q 351 359 373 337 q 395 315 427 315 z"},"F":{"x_min":0,"x_max":688,"ha":688,"o":"m 73 0 l 73 745 l 686 745 l 686 558 l 403 558 l 403 423 l 613 423 l 613 236 l 403 236 l 403 0 z"},"`":{"x_min":0,"x_max":333,"ha":333,"o":"m 259 626 l 158 626 l -9 757 l 192 757 z"},"k":{"x_min":0,"x_max":781,"ha":781,"o":"m 356 745 l 356 393 q 467 435 470 588 l 769 588 q 761 498 733 442 q 705 386 645 343 q 680 315 705 281 q 729 248 744 204 q 760 161 764 117 q 769 74 769 0 l 470 0 q 470 136 443 201 q 415 266 356 289 l 356 0 l 54 0 l 54 745 z"},"u":{"x_min":0,"x_max":802,"ha":802,"o":"m 741 588 l 741 0 l 452 0 l 452 103 l 450 103 q 406 47 359 21 q 313 -5 249 -5 q 157 -5 100 50 q 44 104 44 203 l 44 588 l 329 588 l 329 271 q 329 191 384 191 q 420 191 439 222 l 439 588 z"},"]":{"x_min":0,"x_max":531,"ha":531,"o":"m 15 15 l 157 15 l 157 580 l 15 580 l 15 745 l 459 745 l 459 -150 l 15 -150 z"},"U":{"x_min":0,"x_max":865,"ha":865,"o":"m 803 745 l 803 407 q 803 186 690 87 q 577 -12 432 -12 q 327 -12 233 42 q 138 97 100 187 q 62 276 62 422 l 62 745 l 392 745 l 392 400 q 392 344 402 330 q 412 315 431 315 q 458 315 466 342 q 473 368 473 431 l 473 745 z"},"o":{"x_min":0,"x_max":719,"ha":719,"o":"m 359 -9 q 219 -9 129 75 q 38 160 38 295 q 38 430 127 515 q 217 600 359 600 q 502 600 592 515 q 681 430 681 295 q 681 160 592 76 q 502 -9 359 -9 z m 359 368 q 330 368 311 349 q 293 331 293 301 q 293 271 311 252 q 330 234 359 234 q 389 234 407 252 q 426 271 426 301 q 426 331 407 350 q 389 368 359 368 z"},"N":{"x_min":0,"x_max":885,"ha":885,"o":"m 813 -6 l 563 -6 l 403 229 l 403 0 l 73 0 l 73 745 l 309 745 l 483 493 l 483 745 l 813 745 z"},"+":{"x_min":0,"x_max":667,"ha":667,"o":"m 53 418 l 254 418 l 254 619 l 412 619 l 412 418 l 613 418 l 613 260 l 412 260 l 412 59 l 254 59 l 254 260 l 53 260 z"},"G":{"x_min":0,"x_max":854,"ha":854,"o":"m 826 657 l 667 433 q 567 481 483 481 q 427 481 393 452 q 359 423 359 375 q 359 284 478 284 l 478 401 l 808 401 l 808 -1 q 608 -12 537 -12 q 264 -12 157 104 q 51 220 51 375 q 51 481 100 570 q 150 659 243 708 q 337 757 465 757 q 555 757 651 731 q 747 705 826 657 z"},"q":{"x_min":0,"x_max":802,"ha":802,"o":"m 745 -165 l 443 -165 l 443 10 q 397 -12 329 -12 q 205 -12 122 72 q 40 156 40 284 q 40 417 130 502 q 220 588 378 588 l 745 588 z m 443 234 l 443 366 l 414 366 q 330 366 330 293 q 330 261 348 239 q 366 218 393 218 q 421 218 443 234 z"},"d":{"x_min":0,"x_max":802,"ha":802,"o":"m 745 745 l 745 0 l 386 0 q 222 0 131 85 q 40 170 40 299 q 40 424 123 509 q 206 593 329 593 q 397 593 443 572 l 443 745 z m 443 214 l 443 346 q 420 361 392 361 q 365 361 348 340 q 330 318 330 286 q 330 249 351 231 q 373 214 419 214 z"},"1":{"x_min":0,"x_max":854,"ha":854,"o":"m 593 0 l 261 0 l 261 661 l 593 757 z"},"5":{"x_min":0,"x_max":854,"ha":854,"o":"m 773 745 l 773 612 l 510 612 l 484 511 q 609 503 675 438 q 741 373 741 267 q 741 145 652 66 q 562 -12 422 -12 q 301 -12 204 40 q 106 91 83 182 l 89 189 q 168 135 258 135 q 325 135 367 164 q 409 194 409 240 q 409 335 249 335 q 160 335 107 298 l 99 304 l 209 745 z"}}}
